<?xml version="1.0" encoding="utf-8"?>
<!-- Generator: Adobe Illustrator 26.3.1, SVG Export Plug-In . SVG Version: 6.00 Build 0)  -->
<svg version="1.1" id="Capa_1" xmlns="http://www.w3.org/2000/svg" xmlns:xlink="http://www.w3.org/1999/xlink" x="0px" y="0px"
	 viewBox="0 0 1200 1200" style="enable-background:new 0 0 1200 1200;" xml:space="preserve">
<style type="text/css">
	.st0{fill:#FDFDFD;}
</style>
<path class="st0" d="M230.9,595.8c-1.2-98.4-2.5-172.5,0.3-246.6c2.3-61.8,46.8-103.6,108.8-103.7c67.9-0.1,135.8-0.4,203.7-0.6
	c61.9-0.2,123.9,0,185.8-1.1c78.4-1.4,130,59.9,138.5,125.5c6.9,53.5-13.1,95.9-50.4,133.8c-94.3,95.8-184.3,195.7-276.4,293.6
	c-27.2,28.9-54.1,58.1-80.7,87.6c-33.3,36.9-75,51.8-123.6,40.2c-52.4-12.4-85.6-46.5-101.8-97.5c-8.4-26.5-6.2-53.9-5.1-81
	C232.1,687.8,230.9,629.6,230.9,595.8z M327.1,580.8c-0.3,0-0.6,0-0.9,0c0,2.2,0,4.4,0,6.5c-0.2,65.4-0.5,130.7-0.6,196.1
	c0,18.9,9.4,33.6,25.5,40c14.8,5.9,29.4,1.6,42.8-12.8c43.7-46.9,86.9-94.2,131.1-140.6c78.5-82.4,152.7-168.7,233.3-249.1
	c14.2-14.1,20.3-29.9,12.3-49.2c-8-19.4-23.5-25.4-43.7-25.2c-57.6,0.6-115.1,0.4-172.7,0.5c-66.3,0.1-132.6,0.1-198.9,1.6
	c-19.1,0.4-27.8,9.1-27.9,28.5c-0.2,30.3-0.3,60.7-0.3,91C327,505.8,327.1,543.3,327.1,580.8z"/>
<path class="st0" d="M786.9,760c16.3,0,32.5-0.1,48.8,0c20.9,0.1,33.3,11.3,33.7,31.9c0.6,34.7,0.5,69.4,0,104.1
	c-0.3,19.8-13.1,31.6-33,31.7c-32.5,0.1-65,0.1-97.6,0c-21.7-0.1-33.9-11.9-34.1-33.4c-0.3-34.1-0.4-68.2,0-102.2
	c0.3-20.3,12.3-31.6,32.5-32.1c0.6,0,1.3,0,1.9,0C755,760,770.9,760,786.9,760z"/>
</svg>
